<svg width="20" height="26" viewBox="0 0 20 26" fill="none" xmlns="http://www.w3.org/2000/svg">
<path d="M19.545 9.36905C19.545 4.34514 15.2714 0.272461 9.99956 0.272461C4.72775 0.272461 0.454102 4.34514 0.454102 9.36905V9.91696C0.454102 11.9271 1.11317 13.887 2.33919 15.5227L9.9807 25.7178C9.98994 25.7301 10.0092 25.7301 10.0184 25.7178L17.6599 15.5227C18.8859 13.887 19.545 11.9271 19.545 9.91696V9.36905Z" fill="#0266C1"/>
<path d="M8.30343 6.33609C9.37528 5.84767 10.6238 5.84767 11.6957 6.33609C12.7675 6.82451 13.546 7.74819 13.8107 8.84566C14.0754 9.94313 13.7976 11.0949 13.0559 11.9751C12.3141 12.8552 11.1892 13.3678 9.99956 13.3678C8.8099 13.3678 7.68499 12.8552 6.94325 11.9751C6.20151 11.0949 5.92368 9.94313 6.1884 8.84566C6.45313 7.74819 7.23159 6.82451 8.30343 6.33609Z" fill="white"/>
</svg>
